<svg width="118" height="24" viewBox="0 0 118 24" fill="none" xmlns="http://www.w3.org/2000/svg">
<path d="M12 21.3481C12.3586 21.3482 12.6693 21.4794 12.932 21.7421C13.1946 22.0048 13.3258 22.3154 13.326 22.674C13.3258 23.0326 13.1946 23.3433 12.932 23.606C12.6693 23.8687 12.3586 23.9999 12 24C11.6414 23.9999 11.3307 23.8687 11.068 23.606C10.8054 23.3433 10.6742 23.0326 10.674 22.674C10.6742 22.3154 10.8054 22.0048 11.068 21.7421C11.3307 21.4794 11.6414 21.3482 12 21.3481Z" fill="#701DD7"/>
<path d="M5.77364 21.098C5.96543 21.0979 6.1277 21.1644 6.26046 21.2969C6.39329 21.4298 6.46045 21.5927 6.4603 21.7847C6.4604 21.9766 6.39324 22.1387 6.26046 22.2715C6.12765 22.4043 5.96556 22.4706 5.77364 22.4704C5.58172 22.4705 5.41962 22.4043 5.28682 22.2715C5.15404 22.1387 5.08688 21.9766 5.08698 21.7847C5.08683 21.5927 5.15399 21.4298 5.28682 21.2969C5.41958 21.1643 5.58184 21.0979 5.77364 21.098Z" fill="#701DD7"/>
<path d="M18.2264 21.098C18.4182 21.0979 18.5804 21.1643 18.7132 21.2969C18.846 21.4298 18.9132 21.5927 18.913 21.7847C18.9131 21.9766 18.846 22.1387 18.7132 22.2715C18.5804 22.4043 18.4183 22.4705 18.2264 22.4704C18.0344 22.4706 17.8723 22.4043 17.7395 22.2715C17.6068 22.1387 17.5396 21.9766 17.5397 21.7847C17.5396 21.5927 17.6067 21.4298 17.7395 21.2969C17.8723 21.1643 18.0346 21.0979 18.2264 21.098Z" fill="#701DD7"/>
<path d="M8.44167 17.7897C8.80011 17.7899 9.11103 17.9213 9.37364 18.1837C9.63625 18.4464 9.76836 18.7572 9.76859 19.1157C9.76844 19.4743 9.63633 19.785 9.37364 20.0477C9.11096 20.3103 8.80026 20.4425 8.44167 20.4426C8.08325 20.4424 7.7723 20.3103 7.50971 20.0477C7.24727 19.7851 7.11585 19.4741 7.11571 19.1157C7.11594 18.7573 7.24713 18.4463 7.50971 18.1837C7.7723 17.9212 8.08325 17.79 8.44167 17.7897Z" fill="#701DD7"/>
<path d="M15.5583 17.7897C15.9168 17.79 16.2277 17.9212 16.4903 18.1837C16.7529 18.4463 16.8841 18.7573 16.8843 19.1157C16.8841 19.4741 16.7527 19.7851 16.4903 20.0477C16.2277 20.3103 15.9168 20.4424 15.5583 20.4426C15.1997 20.4425 14.889 20.3103 14.6264 20.0477C14.3637 19.785 14.2316 19.4743 14.2314 19.1157C14.2316 18.7572 14.3638 18.4464 14.6264 18.1837C14.889 17.9213 15.1999 17.7899 15.5583 17.7897Z" fill="#701DD7"/>
<path d="M2.21531 17.5406C2.40729 17.5405 2.57025 17.6067 2.70308 17.7395C2.83576 17.8723 2.90207 18.0345 2.90197 18.2264C2.90212 18.4183 2.83591 18.5813 2.70308 18.7141C2.57027 18.8469 2.40723 18.9132 2.21531 18.913C2.0236 18.9131 1.86119 18.8468 1.72849 18.7141C1.59566 18.5813 1.52945 18.4183 1.5296 18.2264C1.5295 18.0345 1.59579 17.8723 1.72849 17.7395C1.86122 17.6068 2.02353 17.5406 2.21531 17.5406Z" fill="#701DD7"/>
<path d="M21.7847 17.5406C21.9765 17.5406 22.1388 17.6068 22.2715 17.7395C22.4042 17.8723 22.4705 18.0345 22.4704 18.2264C22.4706 18.4183 22.4043 18.5813 22.2715 18.7141C22.1388 18.8468 21.9764 18.9131 21.7847 18.913C21.5928 18.9132 21.4297 18.8469 21.2969 18.7141C21.1641 18.5813 21.0979 18.4183 21.098 18.2264C21.0979 18.0345 21.1642 17.8723 21.2969 17.7395C21.4298 17.6067 21.5927 17.5405 21.7847 17.5406Z" fill="#701DD7"/>
<path d="M12 13.6044C12.5329 13.6043 12.9923 13.7964 13.3771 14.1812C13.7619 14.566 13.9541 15.0254 13.9539 15.5583C13.954 16.091 13.7617 16.5498 13.3771 16.9345C12.9923 17.3193 12.5329 17.5124 12 17.5122C11.4671 17.5124 11.0077 17.3193 10.6229 16.9345C10.2383 16.5498 10.046 16.091 10.0461 15.5583C10.0459 15.0254 10.2381 14.566 10.6229 14.1812C11.0077 13.7964 11.4671 13.6043 12 13.6044Z" fill="#701DD7"/>
<path d="M4.88429 14.2324C5.24286 14.2325 5.55359 14.3637 5.81626 14.6264C6.07886 14.889 6.21011 15.1998 6.21026 15.5583C6.21007 15.9169 6.07891 16.2276 5.81626 16.4903C5.5536 16.7529 5.24284 16.8841 4.88429 16.8843C4.52575 16.8841 4.21499 16.7529 3.95233 16.4903C3.68968 16.2276 3.55852 15.9169 3.55833 15.5583C3.55848 15.1997 3.68966 14.889 3.95233 14.6264C4.21502 14.3637 4.52569 14.2325 4.88429 14.2324Z" fill="#701DD7"/>
<path d="M19.1157 14.2324C19.4743 14.2325 19.785 14.3637 20.0477 14.6264C20.3103 14.889 20.4415 15.1997 20.4417 15.5583C20.4415 15.9169 20.3103 16.2276 20.0477 16.4903C19.785 16.7529 19.4742 16.8841 19.1157 16.8843C18.7572 16.8841 18.4464 16.7529 18.1837 16.4903C17.9211 16.2276 17.7899 15.9169 17.7897 15.5583C17.7899 15.1998 17.9211 14.889 18.1837 14.6264C18.4464 14.3637 18.7571 14.2325 19.1157 14.2324Z" fill="#701DD7"/>
<path d="M8.44167 10.0461C8.97462 10.0459 9.43394 10.239 9.81878 10.6238C10.2035 11.0086 10.3957 11.4672 10.3956 12C10.3957 12.5329 10.2036 12.9923 9.81878 13.3771C9.43396 13.7619 8.97458 13.9541 8.44167 13.9539C7.90897 13.954 7.45023 13.7618 7.06551 13.3771C6.68066 12.9923 6.48857 12.5329 6.48871 12C6.48862 11.4672 6.68078 11.0086 7.06551 10.6238C7.45025 10.2391 7.90891 10.046 8.44167 10.0461Z" fill="#701DD7"/>
<path d="M15.5583 10.0461C16.0911 10.046 16.5497 10.2391 16.9345 10.6238C17.3192 11.0086 17.5114 11.4672 17.5113 12C17.5114 12.5329 17.3193 12.9923 16.9345 13.3771C16.5498 13.7618 16.091 13.954 15.5583 13.9539C15.0254 13.9541 14.566 13.7619 14.1812 13.3771C13.7964 12.9923 13.6043 12.5329 13.6044 12C13.6043 11.4672 13.7965 11.0086 14.1812 10.6238C14.5661 10.239 15.0254 10.0459 15.5583 10.0461Z" fill="#701DD7"/>
<path d="M1.32597 10.674C1.68445 10.6742 1.9953 10.8055 2.25793 11.068C2.52057 11.3307 2.65267 11.6415 2.65288 12C2.65273 12.3586 2.52062 12.6693 2.25793 12.932C1.99525 13.1946 1.68456 13.3268 1.32597 13.3269C0.967495 13.3267 0.656615 13.1946 0.394002 12.932C0.131497 12.6693 0.000148182 12.3585 0 12C0.000207284 11.6415 0.131395 11.3307 0.394002 11.068C0.656615 10.8054 0.967495 10.6743 1.32597 10.674Z" fill="#701DD7"/>
<path d="M22.674 10.674C23.0325 10.6743 23.3434 10.8054 23.606 11.068C23.8686 11.3307 23.9998 11.6415 24 12C23.9999 12.3585 23.8685 12.6693 23.606 12.932C23.3434 13.1946 23.0325 13.3267 22.674 13.3269C22.3154 13.3268 22.0048 13.1946 21.7421 12.932C21.4794 12.6693 21.3473 12.3586 21.3471 12C21.3473 11.6415 21.4794 11.3307 21.7421 11.068C22.0047 10.8055 22.3156 10.6742 22.674 10.674Z" fill="#701DD7"/>
<path d="M12 6.48871C12.5329 6.48857 12.9923 6.68066 13.3771 7.06551C13.7619 7.45033 13.9541 7.90974 13.9539 8.44262C13.954 8.97529 13.7617 9.43407 13.3771 9.81878C12.9923 10.2036 12.5329 10.3967 12 10.3965C11.4671 10.3967 11.0077 10.2036 10.6229 9.81878C10.2383 9.43407 10.046 8.97529 10.0461 8.44262C10.0459 7.90974 10.2381 7.45033 10.6229 7.06551C11.0077 6.68066 11.4671 6.48857 12 6.48871Z" fill="#701DD7"/>
<path d="M4.88429 7.11571C5.24286 7.11588 5.55359 7.24799 5.81626 7.51066C6.07882 7.77331 6.21011 8.0841 6.21026 8.44262C6.21004 8.80111 6.07888 9.11196 5.81626 9.37459C5.55361 9.63719 5.24282 9.76841 4.88429 9.76859C4.52577 9.76844 4.21498 9.63715 3.95233 9.37459C3.68971 9.11196 3.55854 8.80111 3.55833 8.44262C3.55848 8.08405 3.6897 7.77333 3.95233 7.51066C4.21502 7.24796 4.52569 7.11585 4.88429 7.11571Z" fill="#701DD7"/>
<path d="M19.1157 7.11571C19.4743 7.11585 19.785 7.24796 20.0477 7.51066C20.3103 7.77333 20.4415 8.08405 20.4417 8.44262C20.4415 8.80111 20.3103 9.11196 20.0477 9.37459C19.785 9.63715 19.4742 9.76844 19.1157 9.76859C18.7572 9.76841 18.4464 9.63719 18.1837 9.37459C17.9211 9.11196 17.79 8.80111 17.7897 8.44262C17.7899 8.0841 17.9212 7.77331 18.1837 7.51066C18.4464 7.24799 18.7571 7.11588 19.1157 7.11571Z" fill="#701DD7"/>
<path d="M2.21531 5.08792C2.40729 5.08778 2.57025 5.15399 2.70308 5.28682C2.83577 5.41956 2.90206 5.58183 2.90197 5.77364C2.90212 5.96562 2.83591 6.12858 2.70308 6.2614C2.57027 6.39417 2.40725 6.46045 2.21531 6.4603C2.02358 6.46034 1.8612 6.39405 1.72849 6.2614C1.59566 6.12858 1.52945 5.96562 1.5296 5.77364C1.52951 5.58182 1.59579 5.41957 1.72849 5.28682C1.86122 5.1541 2.02353 5.08788 2.21531 5.08792Z" fill="#701DD7"/>
<path d="M21.7847 5.08792C21.9765 5.08788 22.1388 5.1541 22.2715 5.28682C22.4042 5.41957 22.4705 5.58182 22.4704 5.77364C22.4706 5.96562 22.4043 6.12858 22.2715 6.2614C22.1388 6.39405 21.9764 6.46034 21.7847 6.4603C21.5928 6.46045 21.4297 6.39417 21.2969 6.2614C21.1641 6.12858 21.0979 5.96562 21.098 5.77364C21.0979 5.58183 21.1642 5.41956 21.2969 5.28682C21.4298 5.15399 21.5927 5.08778 21.7847 5.08792Z" fill="#701DD7"/>
<path d="M8.44167 3.55833C8.80015 3.55848 9.11101 3.68982 9.37364 3.95233C9.6363 4.21499 9.7684 4.52575 9.76859 4.88429C9.76844 5.2429 9.63633 5.55357 9.37364 5.81626C9.11098 6.07886 8.80022 6.21011 8.44167 6.21026C8.08325 6.21001 7.7723 6.07885 7.50971 5.81626C7.2472 5.55363 7.11585 5.24277 7.11571 4.88429C7.11589 4.52581 7.24714 4.21496 7.50971 3.95233C7.7723 3.68974 8.08325 3.55858 8.44167 3.55833Z" fill="#701DD7"/>
<path d="M15.5583 3.55833C15.9168 3.55858 16.2277 3.68974 16.4903 3.95233C16.7529 4.21496 16.8841 4.52581 16.8843 4.88429C16.8841 5.24277 16.7528 5.55363 16.4903 5.81626C16.2277 6.07885 15.9168 6.21001 15.5583 6.21026C15.1998 6.21011 14.889 6.07886 14.6264 5.81626C14.3637 5.55357 14.2316 5.2429 14.2314 4.88429C14.2316 4.52575 14.3637 4.21499 14.6264 3.95233C14.889 3.68982 15.1998 3.55848 15.5583 3.55833Z" fill="#701DD7"/>
<path d="M5.77364 1.5296C5.96544 1.52945 6.1277 1.59591 6.26046 1.72849C6.39329 1.86132 6.46045 2.02428 6.4603 2.21626C6.46039 2.40813 6.39323 2.57031 6.26046 2.70308C6.12766 2.83581 5.96555 2.90212 5.77364 2.90197C5.58173 2.90211 5.41962 2.83583 5.28682 2.70308C5.15405 2.57031 5.08689 2.40813 5.08698 2.21626C5.08683 2.02428 5.15399 1.86132 5.28682 1.72849C5.41958 1.59589 5.58183 1.52946 5.77364 1.5296Z" fill="#701DD7"/>
<path d="M18.2264 1.5296C18.4182 1.52946 18.5804 1.59589 18.7132 1.72849C18.846 1.86132 18.9132 2.02428 18.913 2.21626C18.9131 2.40813 18.846 2.57031 18.7132 2.70308C18.5804 2.83582 18.4183 2.90211 18.2264 2.90197C18.0345 2.90212 17.8723 2.83581 17.7395 2.70308C17.6068 2.57031 17.5396 2.40813 17.5397 2.21626C17.5396 2.02428 17.6067 1.86132 17.7395 1.72849C17.8723 1.5959 18.0346 1.52945 18.2264 1.5296Z" fill="#701DD7"/>
<path d="M12 0C12.3586 0.000148235 12.6693 0.132257 12.932 0.394949C13.1945 0.6576 13.3258 0.968394 13.326 1.32691C13.3257 1.68536 13.1946 1.99628 12.932 2.25888C12.6693 2.52144 12.3585 2.65273 12 2.65288C11.6415 2.65273 11.3307 2.52144 11.068 2.25888C10.8054 1.99628 10.6743 1.68536 10.674 1.32691C10.6742 0.968395 10.8055 0.6576 11.068 0.394949C11.3307 0.132257 11.6414 0.000148368 12 0Z" fill="#701DD7"/>
<path d="M37.9998 22H33.9992V12H32V8.0002H33.9992V3.99939H35.9995V2H41.9993V5.9998H37.9998V8.0002H41.9993V12H37.9998V22Z" fill="#F0F1F4"/>
<path fill-rule="evenodd" clip-rule="evenodd" d="M55.993 8.0002H57.9932V22H53.9927V19.9996H51.9935V22H45.9937V19.9996H43.9934V14.0004H45.9937V12H53.9927V9.99959H43.9934V8.0002H45.9937V5.9998H55.993V8.0002ZM47.9939 18.0002H53.9927V15.9998H47.9939V18.0002Z" fill="#F0F1F4"/>
<path d="M73.9973 12H71.9971V14.0004H69.9978V15.9998H67.9976V18.0002H73.9973V22H59.9975V18.0002H61.9978V15.9998H63.9981V14.0004H65.9973V12H67.9976V9.99959H59.9975V5.9998H73.9973V12Z" fill="#F0F1F4"/>
<path d="M86.0019 5.9998H82.0014V8.0002H86.0019V12H82.0014V22H78.0019V12H76.0027V8.0002H78.0019V3.99939H80.0022V2H86.0019V5.9998Z" fill="#F0F1F4"/>
<path fill-rule="evenodd" clip-rule="evenodd" d="M99.9956 8.0002H101.996V22H97.9954V19.9996H95.9961V22H89.9964V19.9996H87.9961V14.0004H89.9964V12H97.9954V9.99959H87.9961V8.0002H89.9964V5.9998H99.9956V8.0002ZM91.9956 18.0002H97.9954V15.9998H91.9956V18.0002Z" fill="#F0F1F4"/>
<path d="M118 12H116V14.0004H114.001V15.9998H112V18.0002H118V22H104V18.0002H106V15.9998H108.001V14.0004H110V12H112V9.99959H104V5.9998H118V12Z" fill="#F0F1F4"/>
</svg>
